<?xml version="1.0" encoding="utf-8"?>
<!-- Svg Vector Icons : http://www.onlinewebfonts.com/icon -->
<!DOCTYPE svg PUBLIC "-//W3C//DTD SVG 1.1//EN" "http://www.w3.org/Graphics/SVG/1.1/DTD/svg11.dtd">
<svg version="1.1" xmlns="http://www.w3.org/2000/svg" xmlns:xlink="http://www.w3.org/1999/xlink" x="0px" y="0px" viewBox="0 0 1000 1000" enable-background="new 0 0 1000 1000" xml:space="preserve">
<metadata> Svg Vector Icons : http://www.onlinewebfonts.com/icon </metadata>
<g><g transform="translate(0.000000,511.000000) scale(0.100000,-0.100000)"><path d="M8924.4,4073c-124.3-121.5-938.8-613-4020.1-2429.8l-3860-2277.9H602.5c-284.4,0-452.8-11-472.1-30.4C111-684.4,100-811.4,100-990.8c0-240.2,8.3-309.2,49.7-370c38.7-58,44.2-85.6,22.1-129.8c-16.6-30.4-30.4-201.6-30.4-383.8c0-295.4,5.5-339.6,63.5-422.4c33.1-52.5,116-121.5,185-154.6c118.7-60.7,143.6-63.5,1040.9-63.5c900.1,0,919.4,0,919.4-55.2c0-46.9-19.3-55.2-124.3-55.2c-124.2,0-124.2,0-124.2-93.9v-96.6l-629.5-8.3c-629.5-8.3-632.3-8.3-742.7-82.8C569.4-3012,528-3119.7,528-3434.4c0-284.4,38.7-378.3,201.6-499.8c77.3-58,85.6-58,2871.5-66.3c2043.2-5.5,2813.6,2.8,2871.5,24.8c107.7,46.9,232,198.8,270.6,334.1c16.6,66.3,24.9,201.6,19.3,303.7c-16.6,215.4-88.4,347.9-237.4,441.8c-102.2,63.5-104.9,63.5-1295,71.8l-1195.5,8.3v93.9c0,93.9-2.8,96.6-110.4,96.6c-91.1,0-110.4,8.3-110.4,55.2c0,52.5,19.3,55.2,676.5,55.2c753.8,0,798,8.3,944.3,173.9c110.4,127,127,237.5,113.2,742.7c-11,358.9-16.6,408.6-82.8,535.6c-41.4,74.6-124.2,185-190.5,243l-116,104.9l2076.3,2076.3l2073.6,2073.6V1924.9c0-1491,0-1510.3-55.2-1526.9c-102.2-33.1-146.3-138.1-129.8-314.8c11.1-129.8,5.5-162.9-35.9-187.8c-69-44.2-138.1-207.1-138.1-331.3s74.6-256.8,190.5-342.4c71.8-52.5,85.6-80.1,85.6-179.5c0-110.4,11.1-127,121.5-201.6c245.7-168.4,298.2-320.3,165.7-455.6c-96.6-96.6-215.4-93.9-375.5,8.3c-69,44.2-135.3,93.9-143.6,110.4c-38.7,58-71.8,30.4-71.8-60.7c0-209.9,243-405.9,499.7-405.9c519.1,0,665.4,682,190.5,897.4c-110.4,49.7-116,58-99.4,149.1c8.3,52.4,35.9,107.7,63.5,124.2C9808-662.3,9866-314.4,9681-140.4c-63.5,58-69,82.8-63.5,243c8.3,174,5.5,179.5-93.9,267.8l-104.9,88.4v1537.9v1535.2l85.6,118.7c74.6,102.2,82.8,132.5,71.8,251.3c-11.1,113.2-30.4,151.9-113.2,229.2c-85.6,77.3-118.7,91.1-240.2,91.1C9090.1,4222.1,9073.5,4213.8,8924.4,4073z M9402.1,4026c124.3-146.3,77.3-325.8-102.2-381c-46.9-13.8-151.9-35.9-231.9-44.2l-140.8-19.3l22.1,107.7c13.8,58,33.1,151.9,41.4,207.1C9023.8,4108.9,9269.5,4186.2,9402.1,4026z M8885.8,3738.9c-44.2-182.2-55.2-198.8-176.7-218.1c-58-11-129.8-27.6-160.1-35.9c-33.1-8.3,30.4,74.6,149.1,196c113.2,113.2,209.8,204.3,212.6,201.6C8913.4,3879.7,8902.3,3816.2,8885.8,3738.9z M6318,1466.5C4280.3-571.2,4222.3-626.4,4087-656.8c-212.6-52.4-381-187.7-480.4-389.3l-82.8-168.4l-1063,5.5l-1063,5.5l-13.8,185c-11,154.6-27.6,196-93.9,267.8c-74.6,77.3-74.6,82.8-27.6,113.2c350.6,215.4,7101.5,4191.3,7120.8,4194.1C8397.1,3559.4,7469.4,2617.9,6318,1466.5z M9059.7,3352.3c-113.2-116-209.8-193.3-212.6-173.9c-5.5,19.3,8.3,96.6,27.6,173.9c35.9,132.5,38.7,135.3,173.9,168.4c74.6,16.6,154.6,33.1,176.7,35.9C9247.5,3556.7,9172.9,3465.6,9059.7,3352.3z M8811.2,3424.1c0-58-66.3-323.1-88.4-350.7c-19.3-27.6-281.6-93.9-367.2-93.9c-24.9,0-22.1,52.5,11.1,198.8l46.9,198.8l135.3,33.1C8725.6,3451.7,8811.2,3454.5,8811.2,3424.1z M8278.3,3131.5c-44.2-182.2-55.2-198.8-176.7-218.1c-58-11-129.8-27.6-160.1-35.9c-33.1-8.3,30.4,74.6,149.1,196c113.2,113.2,209.8,204.3,212.6,201.6C8306,3272.3,8294.9,3208.8,8278.3,3131.5z M8452.3,2744.9c-113.2-116-209.8-193.3-212.6-173.9c-5.5,19.3,8.3,96.6,27.6,173.9c35.9,132.5,38.7,135.3,173.9,168.4c74.6,16.6,154.6,33.1,176.7,35.9C8640,2949.2,8565.5,2858.1,8452.3,2744.9z M8203.8,2808.4c-2.8-46.9-77.3-356.2-88.4-364.5c-19.3-13.8-394.8-93.9-403.1-85.6c-5.5,2.8,13.8,99.4,44.2,209.8l49.7,201.6l138,33.1C8129.2,2847.1,8203.8,2847.1,8203.8,2808.4z M7662.6,2518.5c-19.3-88.3-35.9-168.4-38.7-176.7c0-11-47-27.6-102.2-38.7c-58-8.3-135.3-24.8-173.9-33.1c-55.2-11-27.6,27.6,138.1,196c113.2,116,207.1,209.8,209.8,209.8C7698.5,2675.9,7684.7,2604.1,7662.6,2518.5z M7844.8,2137.5c-113.2-113.2-209.8-201.6-215.4-196c-5.5,8.3,2.8,80.1,22.1,165.7c30.4,143.6,35.9,154.6,132.5,179.5c132.5,33.1,207.1,49.7,240.2,55.2C8038.1,2341.8,7958,2250.7,7844.8,2137.5z M7596.3,2217.5c0-8.3-19.3-99.4-41.4-201.6l-44.2-187.8l-198.8-44.2c-107.7-24.9-201.6-38.7-207.1-35.9c-2.8,5.5,11,96.6,35.9,207.1c44.2,190.5,49.7,196,146.3,220.9C7510.8,2234.1,7596.3,2245.1,7596.3,2217.5z M7091.1,2049.1c-8.3-13.8-27.6-91.1-44.2-176.7l-33.1-154.6l-138-30.4c-77.3-19.3-154.6-33.1-171.2-33.1c-16.6,0,60.7,93.9,173.9,207.1C7069,2054.6,7121.4,2098.8,7091.1,2049.1z M7237.4,1530c-113.2-116-209.8-196-215.4-179.5s5.5,91.1,22.1,165.7c27.6,116,46.9,140.8,107.7,154.6c38.6,8.3,110.4,27.6,154.6,38.7c46.9,13.8,93.9,24.8,110.4,24.8C7430.7,1737.1,7350.6,1643.2,7237.4,1530z M6977.9,1565.9c-8.3-35.9-30.4-127-46.9-207.1l-33.1-140.8l-193.3-44.2c-107.7-24.9-198.8-38.7-207.1-33.1c-11.1,13.8,63.5,372.7,82.8,389.3c13.8,16.6,309.3,91.1,364.5,93.9C6983.4,1626.7,6991.7,1612.9,6977.9,1565.9z M6433.9,1265c-16.6-82.8-33.1-151.9-35.9-154.6c-2.8-2.8-85.6-24.8-182.2-46.9l-176.7-41.4l204.3,204.3c113.2,113.2,207.1,201.6,212.6,196C6461.6,1416.8,6450.5,1347.8,6433.9,1265z M6602.4,895c-113.2-113.2-209.8-207.1-212.6-207.1c-8.3,0,5.5,74.6,49.7,254c22.1,91.1,38.7,104.9,143.6,127C6817.7,1121.4,6817.7,1113.1,6602.4,895z M6373.2,980.6c-8.3-22.1-30.4-113.2-47-204.3l-33.1-165.7l-196-44.2c-104.9-24.8-198.8-38.7-207.1-33.1c-11.1,13.8,63.5,372.7,82.8,389.3c11,13.8,323.1,88.4,378.3,93.9C6370.4,1019.2,6381.5,1002.7,6373.2,980.6z M5826.5,652l-33.1-154.6l-154.6-33.1c-85.6-16.6-165.7-38.7-182.2-44.2c-13.8-8.3,66.3,77.3,176.7,193.3c113.2,116,209.8,207.1,215.4,201.6C5854.1,812.1,5843.1,737.6,5826.5,652z M5994.9,287.5c-113.2-113.2-209.8-207.1-212.6-207.1c-8.3,0,5.5,74.6,49.7,254c22.1,91.1,38.7,104.9,143.6,127C6210.3,514,6210.3,505.7,5994.9,287.5z M5765.8,373.1c-8.3-22.1-30.4-113.2-47-204.3L5685.7,3.1l-193.3-46.9c-104.9-27.6-198.8-41.4-207.1-30.4c-8.3,8.3,2.8,99.4,22.1,201.6l41.4,187.8l176.7,46.9C5754.7,420.1,5782.3,420.1,5765.8,373.1z M9446.3,259.9c19.3-24.8,27.6-69,16.5-110.4c-16.5-60.8-30.4-71.8-107.7-63.5c-69,5.5-91.1,22.1-96.6,71.8C9239.2,279.3,9371.7,351,9446.3,259.9z M5216.3,50.1c-16.6-82.8-35.9-154.6-38.6-157.4c-2.8-5.5-60.8-22.1-127-35.9c-66.3-13.8-143.6-33.1-173.9-41.4c-30.4-11.1,33.1,71.8,149.1,193.3C5139,121.9,5235.6,213,5241.2,207.5C5246.7,201.9,5235.6,132.9,5216.3,50.1z M5387.5-319.9c-113.2-113.2-207.1-201.6-212.6-196c-5.5,2.7,8.3,80,27.6,171.2c35.9,157.4,38.7,162.9,160.1,193.3C5602.8-85.2,5605.6-101.8,5387.5-319.9z M9559.5-248.1c168.4-171.2,38.7-444.5-209.8-444.5c-118.7,0-234.7,138.1-234.7,276.1c0,154.6,93.9,248.5,248.5,248.5C9454.5-168,9496-184.6,9559.5-248.1z M5116.9-394.5c-24.9-110.4-55.2-209.8-71.8-220.9c-16.6-11-107.7-22.1-204.3-22.1h-174l19.3,104.9c46.9,240.2,41.4,237.5,248.5,287.2c104.9,24.8,198.8,46.9,207.1,46.9C5152.8-195.7,5141.7-286.8,5116.9-394.5z M4633.7-435.9c-8.3-27.6-22.1-80-30.4-118.7c-11-60.7-30.4-71.8-113.2-71.8h-96.6l116,118.7C4639.2-375.1,4650.3-369.6,4633.7-435.9z M1430.8-3094.8c223.6-135.3,231.9-463.9,19.3-632.3c-218.1-171.2-555-41.4-607.4,231.9c-24.8,140.8,8.3,231.9,124.2,350.7c93.9,93.9,121.5,104.9,240.2,104.9C1292.8-3039.6,1375.6-3058.9,1430.8-3094.8z M2377.9-3081c168.4-85.6,243-336.9,151.9-510.8c-168.4-323-651.6-259.6-720.6,96.6c-24.8,140.8,8.3,231.9,124.2,350.7c93.9,91.1,124.2,104.9,234.7,104.9C2239.8-3039.6,2333.7-3058.9,2377.9-3081z M3347-3081c173.9-91.1,245.7-364.5,143.6-541.2c-66.3-110.4-259.5-201.6-383.8-182.2c-223.7,35.9-375.5,265.1-317.5,480.4C2852.8-3086.5,3126.2-2967.8,3347-3081z M4313.4-3081c113.2-60.8,190.5-196,190.5-342.4c0-428-579.8-530.1-731.7-129.7C3645.2-3224.6,3995.9-2918.1,4313.4-3081z M5279.8-3081c182.2-96.6,248.5-370,135.3-555c-69-110.4-259.6-193.3-389.3-165.7c-215.4,41.4-358.9,267.8-303.7,477.7C4785.6-3086.5,5058.9-2967.8,5279.8-3081z M6326.2-3136.2c168.4-162.9,173.9-389.3,13.8-552.2c-168.4-165.7-403.1-154.6-566,30.4c-146.3,165.7-102.2,444.5,91.1,566C5994.9-3009.2,6215.8-3031.3,6326.2-3136.2z"/><path d="M1163-3224.6c-88.4-33.1-138.1-102.2-138.1-193.3c0-113.2,82.8-201.6,190.5-201.6c196,0,278.9,220.9,129.8,350.7C1270.7-3205.2,1237.6-3197,1163-3224.6z"/><path d="M2129.4-3224.6c-88.4-33.1-138.1-102.2-138.1-193.3c0-113.2,82.8-201.6,190.5-201.6c196,0,278.9,220.9,129.8,350.7C2237.1-3205.2,2204-3197,2129.4-3224.6z"/><path d="M3076.4-3232.9c-127-52.5-157.4-229.2-55.2-325.8c91.1-85.6,220.9-80.1,292.7,11c93.9,118.8,71.8,237.5-55.2,301C3170.3-3199.7,3162-3199.7,3076.4-3232.9z"/><path d="M4042.8-3232.9c-207.1-82.8-118.7-403.1,102.2-381c198.8,19.3,254,278.9,82.8,367.2C4136.7-3199.7,4128.4-3199.7,4042.8-3232.9z"/><path d="M5009.2-3232.9c-207.1-82.8-118.7-403.1,102.2-381c198.8,19.3,254,278.9,82.8,367.2C5103.1-3199.7,5094.8-3199.7,5009.2-3232.9z"/><path d="M5978.4-3235.6c-60.7-30.4-121.5-132.5-121.5-207.1c0-69,129.8-176.7,215.4-176.7c96.6,0,198.8,102.2,198.8,198.8C6271-3277,6105.4-3174.9,5978.4-3235.6z"/></g></g>
</svg>